<mxfile host="app.diagrams.net" modified="2023-10-17T10:16:02.714Z" agent="Mozilla/5.0 (Macintosh; Intel Mac OS X 10_15_7) AppleWebKit/537.36 (KHTML, like Gecko) Chrome/117.0.0.0 Safari/537.36" etag="Qr58IVcFzX_-_C0DjBdJ" version="22.0.4" type="github">
  <diagram name="Page-1" id="b5b7bab2-c9e2-2cf4-8b2a-24fd1a2a6d21">
    <mxGraphModel dx="1434" dy="796" grid="1" gridSize="10" guides="1" tooltips="1" connect="1" arrows="1" fold="1" page="1" pageScale="1" pageWidth="827" pageHeight="1169" background="none" math="0" shadow="0">
      <root>
        <mxCell id="0" />
        <mxCell id="1" parent="0" />
        <mxCell id="jG1OkBTigwfXRmsGS2w1-1" value="Login" style="swimlane;whiteSpace=wrap;html=1;" vertex="1" parent="1">
          <mxGeometry x="40" y="40" width="410" height="150" as="geometry" />
        </mxCell>
        <mxCell id="jG1OkBTigwfXRmsGS2w1-2" value="loginFormPadre" style="rounded=0;whiteSpace=wrap;html=1;" vertex="1" parent="jG1OkBTigwfXRmsGS2w1-1">
          <mxGeometry x="30" y="40" width="120" height="60" as="geometry" />
        </mxCell>
        <mxCell id="jG1OkBTigwfXRmsGS2w1-3" value="loginService" style="shape=parallelogram;perimeter=parallelogramPerimeter;whiteSpace=wrap;html=1;fixedSize=1;" vertex="1" parent="jG1OkBTigwfXRmsGS2w1-1">
          <mxGeometry x="240" y="40" width="120" height="60" as="geometry" />
        </mxCell>
      </root>
    </mxGraphModel>
  </diagram>
</mxfile>
